<svg id="Layer_1" data-name="Layer 1" xmlns="http://www.w3.org/2000/svg" xmlns:xlink="http://www.w3.org/1999/xlink" viewBox="0 0 841.89 595.28"><defs><style>.cls-1{fill:url(#radial-gradient);}.cls-2{fill:#fff;}</style><radialGradient id="radial-gradient" cx="363.23" cy="456.99" r="363.84" gradientUnits="userSpaceOnUse"><stop offset="0.1" stop-color="#ffd87a"/><stop offset="0.15" stop-color="#fccb76"/><stop offset="0.26" stop-color="#f4aa6d"/><stop offset="0.4" stop-color="#e8755e"/><stop offset="0.45" stop-color="#e36058"/><stop offset="0.68" stop-color="#cd3694"/><stop offset="1" stop-color="#6668b0"/></radialGradient></defs><path class="cls-1" d="M557.36,379.33A56.4,56.4,0,0,1,501,435.73H339.19a56.4,56.4,0,0,1-56.39-56.4V217.57a56.41,56.41,0,0,1,56.39-56.42H501a56.41,56.41,0,0,1,56.39,56.42Z"/><path class="cls-2" d="M459.82,194.91H380.35a63.8,63.8,0,0,0-63.81,63.8v79.47A63.8,63.8,0,0,0,380.35,402h79.47a63.79,63.79,0,0,0,63.8-63.79V258.71A63.79,63.79,0,0,0,459.82,194.91Zm43.92,135.64a51.55,51.55,0,0,1-51.55,51.55H388a51.55,51.55,0,0,1-51.56-51.55V266.33A51.57,51.57,0,0,1,388,214.78h64.22a51.56,51.56,0,0,1,51.55,51.55Z"/><path class="cls-2" d="M422.86,244.26A54.54,54.54,0,1,0,477.4,298.8,54.54,54.54,0,0,0,422.86,244.26Zm0,87.36a32.82,32.82,0,1,1,32.81-32.82A32.81,32.81,0,0,1,422.86,331.62Z"/><path class="cls-2" d="M487.5,243.41a13.87,13.87,0,1,1-13.88-13.88A13.89,13.89,0,0,1,487.5,243.41Z"/></svg>