<svg width="26" height="22" viewBox="0 0 26 22" fill="none" xmlns="http://www.w3.org/2000/svg">
<path fill-rule="evenodd" clip-rule="evenodd" d="M16.7285 11.4178C18.8688 10.3645 20.3109 8.38252 20.3109 6.11111C20.3109 2.73604 17.127 0 13.1994 0C9.27186 0 6.08795 2.73604 6.08795 6.11111C6.08795 8.38256 7.53006 10.3646 9.67042 11.4179C8.21215 11.7531 6.66605 12.3141 5.25704 13.1859C2.52032 14.8792 0.398926 17.6905 0.398926 22H3.24351C3.24351 18.4872 4.91489 16.4097 6.91914 15.1697C8.99592 13.8847 11.5308 13.4444 13.1995 13.4444C14.8683 13.4444 17.4032 13.8847 19.48 15.1697C21.4842 16.4097 23.1556 18.4872 23.1556 22H26.0002C26.0002 17.6905 23.8788 14.8792 21.1421 13.1859C19.733 12.3141 18.1868 11.753 16.7285 11.4178ZM13.1994 9.22791C11.1963 9.22791 9.57241 7.83247 9.57241 6.11111C9.57241 4.38975 11.1963 2.99431 13.1994 2.99431C15.2025 2.99431 16.8264 4.38975 16.8264 6.11111C16.8264 7.83247 15.2025 9.22791 13.1994 9.22791Z" fill="#202020"/>
</svg>
