<svg width="26" height="22" viewBox="0 0 26 22" fill="none" xmlns="http://www.w3.org/2000/svg">
<path fill-rule="evenodd" clip-rule="evenodd" d="M16.3296 11.4178C18.4699 10.3645 19.9119 8.38252 19.9119 6.11111C19.9119 2.73604 16.728 0 12.8005 0C8.87294 0 5.68903 2.73604 5.68903 6.11111C5.68903 8.38256 7.13114 10.3646 9.27149 11.4179C7.81322 11.7531 6.26712 12.3141 4.85811 13.1859C2.12139 14.8792 0 17.6905 0 22H2.84458C2.84458 18.4872 4.51597 16.4097 6.52022 15.1697C8.59699 13.8847 11.1318 13.4444 12.8006 13.4444C14.4694 13.4444 17.0043 13.8847 19.081 15.1697C21.0853 16.4097 22.7567 18.4872 22.7567 22H25.6012C25.6012 17.6905 23.4798 14.8792 20.7431 13.1859C19.3341 12.3141 17.7879 11.753 16.3296 11.4178ZM12.8005 9.22791C10.7973 9.22791 9.17349 7.83247 9.17349 6.11111C9.17349 4.38975 10.7973 2.99431 12.8005 2.99431C14.8036 2.99431 16.4275 4.38975 16.4275 6.11111C16.4275 7.83247 14.8036 9.22791 12.8005 9.22791Z" fill="#F0F0F0"/>
</svg>
