<svg width="26" height="23" viewBox="0 0 26 23" fill="none" xmlns="http://www.w3.org/2000/svg">
<path fill-rule="evenodd" clip-rule="evenodd" d="M21.2256 16.2601C22.5414 14.5757 23.3158 12.5122 23.3158 10.283C23.3158 4.60385 18.2896 0 12.0895 0C5.88944 0 0.863281 4.60385 0.863281 10.283C0.863281 15.9621 5.88944 20.566 12.0895 20.566C14.7839 20.566 17.2565 19.6966 19.1914 18.2473L23.5787 21.7009C24.1544 22.1541 24.9814 22.0907 25.4814 21.555C26.0445 20.9517 25.9712 19.9958 25.3227 19.4853L21.2256 16.2601ZM12.0895 17.8585C7.52193 17.8585 3.81916 14.4668 3.81916 10.283C3.81916 6.09917 7.52193 2.70752 12.0895 2.70752C16.6571 2.70752 20.3599 6.09917 20.3599 10.283C20.3599 14.4668 16.6571 17.8585 12.0895 17.8585Z" fill="black"/>
</svg>
